<svg width="54" height="26" viewBox="0 0 54 26" fill="none" xmlns="http://www.w3.org/2000/svg">
<path id="Union" fill-rule="evenodd" clip-rule="evenodd" d="M35.7851 3.17933C36.1454 3.52729 36.371 3.89449 36.4556 4.2683C39.4174 4.46942 42.209 5.49379 44.3272 7.17588C46.7011 9.06098 48.0347 11.6177 48.0347 14.2837H45.9547C45.9547 12.0558 44.8402 9.91918 42.8565 8.34384C40.8727 6.7685 38.1822 5.88348 35.3767 5.88348C32.6868 5.88348 30.3671 6.49119 28.432 7.92979C28.6019 8.09526 28.7649 8.26464 28.9206 8.43765C30.7505 7.40659 33.0225 6.83779 35.3767 6.83779C38.1414 6.83779 40.7928 7.62226 42.7477 9.01863C44.7026 10.415 45.8009 12.3089 45.8009 14.2837H44.088C44.088 12.6334 43.1702 11.0507 41.5365 9.88378C39.9028 8.71686 37.6871 8.0613 35.3767 8.06129C33.3178 8.06129 31.3341 8.58189 29.7705 9.52104C29.8952 9.70514 30.0126 9.89219 30.1225 10.0819C31.6336 9.19275 33.5613 8.69926 35.5628 8.69926C37.7845 8.69926 39.9151 9.30723 41.486 10.3894C43.0569 11.4716 43.9394 12.9394 43.9394 14.4698H42.563C42.563 13.1908 41.8255 11.9643 40.5127 11.0599C39.1999 10.1555 37.4194 9.64748 35.5628 9.64748C33.7063 9.64748 31.9258 10.1555 30.613 11.0599L30.6129 11.06C30.6637 11.1791 30.7117 11.2991 30.7568 11.4198C32.0011 10.6303 33.6547 10.1884 35.3767 10.1884C37.154 10.1884 38.8585 10.6591 40.1152 11.4969C41.306 12.2908 42.0023 13.3526 42.0722 14.4698H53.6191C53.6191 15.9739 52.9186 17.463 51.5582 18.8506C50.1979 20.2382 48.2049 21.4968 45.6948 22.5531C43.1848 23.6094 40.2078 24.4425 36.9367 25.004C33.6657 25.5654 30.1657 25.8441 26.6401 25.8237C23.1144 25.8034 19.6334 25.4845 16.3991 24.8855C13.1649 24.2865 10.2418 23.4193 7.79965 22.3344C5.35751 21.2495 3.445 19.9685 2.17315 18.5657C0.901302 17.1628 0.295473 15.6662 0.390843 14.1627L5.96568 14.227C5.98442 11.5815 7.3159 9.04763 9.67291 7.17588C11.8808 5.42255 14.8204 4.38383 17.9217 4.24719C18.01 3.88067 18.2338 3.52074 18.5873 3.17933C19.0551 2.72765 19.7407 2.31723 20.6049 1.97153C21.4692 1.62582 22.4952 1.35159 23.6244 1.1645C24.7537 0.9774 25.9639 0.881104 27.1862 0.881104C28.4085 0.881104 29.6188 0.9774 30.748 1.1645C31.8772 1.35159 32.9032 1.62582 33.7675 1.97153C34.6318 2.31723 35.3173 2.72765 35.7851 3.17933ZM8.04552 14.251L8.19936 14.2528C8.21073 12.2892 9.30771 10.4077 11.2525 9.01863C13.2074 7.62226 15.8588 6.83778 18.6235 6.83779C21.3882 6.83779 24.0396 7.62226 25.9945 9.01863C27.9494 10.415 29.0477 12.3089 29.0477 14.2837H27.3348C27.3348 12.6334 26.417 11.0507 24.7833 9.88378C23.1496 8.71686 20.9339 8.0613 18.6235 8.0613C16.3131 8.06129 14.0974 8.71686 12.4637 9.88378C10.8336 11.0481 9.91629 12.6263 9.9122 14.2726L10.4376 14.2786C10.5079 12.8176 11.3811 11.4265 12.8865 10.3894C14.4574 9.30723 16.588 8.69926 18.8096 8.69926C21.0313 8.69926 23.1619 9.30723 24.7328 10.3894C26.3037 11.4716 27.1862 12.9394 27.1862 14.4698H26.9995L27.0001 14.4698H39.7537C39.6901 13.8335 39.3021 13.2285 38.6496 12.7571C37.9338 12.2399 36.952 11.9214 35.8998 11.8649C34.8476 11.8084 33.8021 12.0182 32.9714 12.4524C32.1407 12.8866 31.5857 13.5134 31.4168 14.2081L31.2809 14.1934C31.2813 14.2235 31.2814 14.2536 31.2814 14.2837H29.2015C29.2015 12.0558 28.087 9.91918 26.1032 8.34384C24.1195 6.7685 21.4289 5.88348 18.6235 5.88348C15.818 5.88348 13.1274 6.7685 11.1437 8.34384C9.1696 9.91149 8.05635 12.0349 8.04552 14.251ZM40.5811 14.4698H40.9699C40.9008 13.5474 40.3208 12.6722 39.3366 12.016C38.2863 11.3159 36.8619 10.9225 35.3767 10.9225C33.8914 10.9225 32.467 11.3159 31.4168 12.016C31.2391 12.1345 31.1062 12.1898 31.0078 12.2049C31.0791 12.4725 31.1367 12.743 31.1804 13.0156C31.5021 12.6336 31.9357 12.2941 32.4618 12.0191C33.4559 11.4995 34.707 11.2485 35.9661 11.3161C37.2252 11.3837 38.3999 11.7648 39.2566 12.3837C40.0499 12.9569 40.5164 13.695 40.5811 14.4698ZM25.8098 14.4561C25.8045 13.1821 25.0676 11.961 23.7595 11.0599C22.4467 10.1555 20.6662 9.64748 18.8096 9.64748C16.9531 9.64748 15.1726 10.1555 13.8598 11.0599C12.6071 11.9229 11.8782 13.0792 11.8141 14.2945L11.9439 14.296C12.0716 13.2429 12.7561 12.2495 13.8849 11.4969C15.1417 10.6591 16.8462 10.1884 18.6235 10.1884C20.4007 10.1884 22.1052 10.6591 23.362 11.4969C24.5458 12.2862 25.241 13.3403 25.3176 14.4504L25.8098 14.4561ZM24.214 14.4377C24.1341 13.5271 23.5561 12.6645 22.5833 12.016C21.5331 11.3159 20.1087 10.9225 18.6235 10.9225C17.1382 10.9225 15.7138 11.3159 14.6636 12.016C13.7368 12.6339 13.1684 13.446 13.0476 14.3088L13.8093 14.3176C13.9257 13.5532 14.4336 12.8348 15.2557 12.2867C16.1983 11.6583 17.4766 11.3053 18.8096 11.3053C20.1426 11.3053 21.4209 11.6583 22.3635 12.2867C23.227 12.8623 23.7438 13.6259 23.8245 14.4332L24.214 14.4377ZM22.9952 14.4236C22.9131 13.7661 22.4846 13.1461 21.7795 12.676C20.9919 12.1509 19.9235 11.8559 18.8096 11.8559C17.6957 11.8559 16.6274 12.1509 15.8397 12.676C15.1692 13.123 14.7488 13.7056 14.6386 14.3271L22.9952 14.4236ZM32.2281 4.38889C32.2947 4.45075 32.3532 4.51373 32.4034 4.57758C32.2271 4.61988 32.0528 4.66584 31.8802 4.71533C31.6488 4.50348 31.3454 4.30967 30.9808 4.14141C30.5314 3.93398 29.9979 3.76945 29.4107 3.65719C28.8235 3.54493 28.1941 3.48715 27.5585 3.48715C26.923 3.48715 26.2936 3.54493 25.7064 3.65719C25.1192 3.76945 24.5857 3.93398 24.1363 4.14141C23.6869 4.34883 23.3304 4.59508 23.0871 4.86609L23.0791 4.87508C22.8163 4.7966 22.5502 4.72504 22.2811 4.66054C22.3427 4.56817 22.4213 4.47739 22.5166 4.38889C22.7808 4.14364 23.1679 3.92079 23.6559 3.73308C24.144 3.54537 24.7234 3.39647 25.361 3.29488C25.9987 3.1933 26.6822 3.14101 27.3724 3.14101C28.0626 3.14101 28.746 3.1933 29.3837 3.29488C30.0213 3.39647 30.6007 3.54537 31.0888 3.73308C31.5768 3.92079 31.964 4.14364 32.2281 4.38889ZM30.0362 4.5774C30.3529 4.7236 30.6059 4.89644 30.7816 5.08653C30.4048 5.23344 30.037 5.39744 29.6774 5.57707C29.58 5.46312 29.4694 5.35636 29.3468 5.25829C29.0875 5.05086 28.7797 4.88633 28.4409 4.77407C28.1021 4.66181 27.7391 4.60403 27.3724 4.60403C27.0057 4.60403 26.6426 4.66181 26.3039 4.77407C25.9651 4.88633 25.6573 5.05086 25.398 5.25829C25.2614 5.36757 25.1397 5.48762 25.0346 5.61639C24.7619 5.4892 24.4835 5.37028 24.2001 5.25983C24.2345 5.20641 24.275 5.15374 24.3214 5.10205C24.4975 4.90585 24.7556 4.72757 25.0809 4.5774C25.4063 4.42723 25.7926 4.30811 26.2177 4.22684C26.6428 4.14557 27.0984 4.10374 27.5585 4.10374C28.0187 4.10374 28.4743 4.14557 28.8994 4.22684C29.3245 4.30811 29.7108 4.42723 30.0362 4.5774ZM28.8018 5.69428C28.8883 5.76347 28.9665 5.83863 29.0357 5.91876C28.4581 6.24553 27.902 6.61251 27.3642 7.01311C26.8417 6.61691 26.2807 6.25946 25.6885 5.94311C25.7626 5.85382 25.8478 5.77044 25.943 5.69428C26.1307 5.54411 26.3535 5.42499 26.5988 5.34372C26.8441 5.26245 27.1069 5.22062 27.3724 5.22062C27.6378 5.22062 27.9007 5.26245 28.146 5.34372C28.3912 5.42499 28.6141 5.54411 28.8018 5.69428ZM20.5036 4.25857C20.5796 4.02335 20.733 3.79266 20.9609 3.5726C21.2995 3.24559 21.7959 2.94846 22.4216 2.69818C23.0473 2.4479 23.7901 2.24937 24.6076 2.11392C25.4251 1.97847 26.3013 1.90875 27.1862 1.90875C28.0711 1.90875 28.9473 1.97847 29.7648 2.11392C30.5823 2.24937 31.3251 2.4479 31.9509 2.69818C32.5766 2.94846 33.0729 3.24559 33.4115 3.5726C33.4444 3.60434 33.4757 3.63631 33.5055 3.66849C33.22 3.49509 32.8849 3.33391 32.5058 3.18809C31.8316 2.92881 31.0313 2.72314 30.1505 2.58282C29.2697 2.4425 28.3257 2.37027 27.3724 2.37027C26.419 2.37027 25.475 2.4425 24.5942 2.58282C23.7134 2.72314 22.9131 2.92881 22.239 3.18809C21.5648 3.44737 21.0301 3.75518 20.6653 4.09395C20.6068 4.14823 20.5529 4.20313 20.5036 4.25857Z" fill="#606C5D"/>
</svg>
